<?xml version="1.0" encoding="UTF-8" standalone="no"?>
<!-- Created with Inkscape (http://www.inkscape.org/) -->
<svg xmlns:dc="http://purl.org/dc/elements/1.1/" xmlns:cc="http://creativecommons.org/ns#" xmlns:rdf="http://www.w3.org/1999/02/22-rdf-syntax-ns#" xmlns:svg="http://www.w3.org/2000/svg" xmlns="http://www.w3.org/2000/svg" xmlns:sodipodi="http://sodipodi.sourceforge.net/DTD/sodipodi-0.dtd" xmlns:inkscape="http://www.inkscape.org/namespaces/inkscape" width="182mm" height="53mm" viewBox="0 0 182 53" version="1.1" id="svg3802" inkscape:version="0.92.1 r15371" sodipodi:docname="digiraha_text.svg">
  <defs id="defs3796">
    <clipPath clipPathUnits="userSpaceOnUse" id="clipPath18">
      <path d="M 0,623.622 H 870.236 V 0 H 0 Z" id="path16" inkscape:connector-curvature="0"/>
    </clipPath>
  </defs>
  <sodipodi:namedview id="base" pagecolor="#ffffff" bordercolor="#666666" borderopacity="1.0" inkscape:pageopacity="0.0" inkscape:pageshadow="2" inkscape:zoom="0.98994949" inkscape:cx="600.40902" inkscape:cy="129.20455" inkscape:document-units="mm" inkscape:current-layer="layer1" showgrid="false" inkscape:window-width="1920" inkscape:window-height="1023" inkscape:window-x="0" inkscape:window-y="31" inkscape:window-maximized="1"/>
  <metadata id="metadata3799">
    <rdf:RDF>
      <cc:Work rdf:about="">
        <dc:format>image/svg+xml</dc:format>
        <dc:type rdf:resource="http://purl.org/dc/dcmitype/StillImage"/>
        <dc:title/>
      </cc:Work>
    </rdf:RDF>
  </metadata>
  <g inkscape:label="Layer 1" inkscape:groupmode="layer" id="layer1" transform="translate(0,-244)">
    <g transform="matrix(0.35277777,0,0,-0.35277777,-61.846807,389.52634)" id="g12">
      <g id="g14" clip-path="url(#clipPath18)">
        <g id="g20" transform="translate(353.0708,320.6723)">
          <path d="M 0,0 C 4.855,0 8.632,1.311 11.638,2.929 V 24.895 C 7.861,26.128 4.547,26.59 0,26.59 -3.931,26.59 -6.243,24.278 -6.243,13.025 -6.243,3.623 -4.008,0 0,0 m -1.773,34.066 c 3.468,0 9.249,-1.002 13.411,-2.851 v 21.811 h 8.863 V -7.476 H 13.41 l -1.772,4.317 c -2.389,-1.85 -8.401,-4.779 -13.411,-4.779 -10.482,0 -13.411,9.171 -13.411,20.732 0,12.101 2.004,21.272 13.411,21.272" style="fill:#16163d;fill-opacity:1;fill-rule:nonzero;stroke:none" id="path22" inkscape:connector-curvature="0"/>
        </g>
        <path d="m 379.656,354.123 h 8.94 v -40.926 h -8.94 z m -0.54,12.099 c 0,1.234 0.617,2.004 1.85,2.004 h 6.551 c 1.156,0 1.773,-0.925 1.773,-2.004 v -5.857 c 0,-1.157 -0.694,-1.773 -1.773,-1.773 h -6.551 c -1.079,0 -1.85,0.694 -1.85,1.773 z" style="fill:#16163d;fill-opacity:1;fill-rule:nonzero;stroke:none" id="path24" inkscape:connector-curvature="0"/>
        <g id="g26" transform="translate(408.71,299.9399)">
          <path d="m 0,0 h 8.247 c 4.085,0 4.855,2.158 4.855,5.01 v 3.546 c 0,2.774 -0.848,4.315 -4.47,4.315 H -2.235 c -1.773,0 -3.314,0.386 -3.314,0.386 V 5.164 C -5.549,0.54 -2.774,0 0,0 m 0.231,32.371 h 5.473 c 4.855,0 6.165,3.699 6.011,7.399 -0.154,4.701 -1.465,6.936 -6.089,6.936 H 0.462 c -5.087,0 -6.011,-3.468 -6.011,-6.936 0,-3.777 1.156,-7.399 5.78,-7.399 M -9.942,28.44 c -3.391,2.158 -4.548,7.245 -4.548,11.33 0,9.788 5.01,14.566 13.873,14.566 H 23.969 V 48.71 l -5.163,-1.388 c 0.77,-1.695 1.849,-3.159 1.849,-8.323 0,-5.473 -2.157,-14.259 -13.487,-14.259 H -3.237 c -1.233,0 -3.16,-0.153 -3.16,-2.004 0,-1.849 1.464,-2.234 3.16,-2.234 h 13.95 c 7.014,0 11.329,-4.008 11.329,-11.562 V 4.316 C 22.042,-1.078 19.73,-7.553 9.634,-7.553 H -1.927 c -7.244,0 -12.563,3.777 -12.563,11.869 v 5.704 l 3.392,4.162 c -2.158,1.387 -3.546,4.085 -3.546,7.322 0,3.006 1.388,6.088 4.702,6.936" style="fill:#16163d;fill-opacity:1;fill-rule:nonzero;stroke:none" id="path28" inkscape:connector-curvature="0"/>
        </g>
        <path d="m 436.22,354.123 h 8.94 v -40.926 h -8.94 z m -0.539,12.099 c 0,1.234 0.616,2.004 1.85,2.004 h 6.551 c 1.156,0 1.772,-0.925 1.772,-2.004 v -5.857 c 0,-1.157 -0.693,-1.773 -1.772,-1.773 h -6.551 c -1.079,0 -1.85,0.694 -1.85,1.773 z" style="fill:#16163d;fill-opacity:1;fill-rule:nonzero;stroke:none" id="path30" inkscape:connector-curvature="0"/>
        <g id="g32" transform="translate(451.4785,354.1225)">
          <path d="M 0,0 H 7.245 L 8.94,-5.164 c 3.469,2.697 7.477,5.626 13.025,5.626 1.928,0 3.931,-0.154 4.933,-0.539 v -8.71 c -1.002,0.154 -3.545,0.308 -5.78,0.308 -5.087,0 -8.324,-1.079 -12.178,-4.546 V -40.926 H 0 Z" style="fill:#16163d;fill-opacity:1;fill-rule:nonzero;stroke:none" id="path34" inkscape:connector-curvature="0"/>
        </g>
        <g id="g36" transform="translate(494.019,320.2876)">
          <path d="m 0,0 c 5.087,0 12.178,3.468 12.178,3.468 v 8.786 L -0.308,11.329 C -3.391,11.021 -4.084,8.863 -4.084,6.859 V 4.162 C -4.084,0.693 -2.235,0 0,0 m -13.025,7.244 c 0,6.012 3.391,10.867 11.33,10.867 0,0 13.873,-0.076 13.873,0 0,0 0.076,3.469 0,3.546 0,4.47 -2.158,5.472 -5.781,5.472 -4.316,0 -13.256,-0.539 -18.112,-0.848 v 5.781 c 5.395,1.849 11.484,2.466 19.114,2.543 7.938,0.078 13.719,-3.16 13.719,-12.716 v -28.98 h -6.936 l -2.004,4.624 C 11.869,-3.006 4.547,-7.63 -1.927,-7.554 c -7.09,0.155 -11.098,4.857 -11.098,10.637 z" style="fill:#16163d;fill-opacity:1;fill-rule:nonzero;stroke:none" id="path38" inkscape:connector-curvature="0"/>
        </g>
        <g id="g40" transform="translate(520.7593,373.5444)">
          <path d="m 0,0 h 8.94 v -23.97 c 3.854,2.544 7.477,5.241 13.719,5.241 9.095,0 12.409,-6.474 12.409,-13.873 v -27.746 h -8.941 v 27.824 c 0,4.392 -2.234,6.242 -5.395,6.242 -5.009,0 -7.63,-1.31 -11.792,-3.854 V -60.348 H 0 Z" style="fill:#16163d;fill-opacity:1;fill-rule:nonzero;stroke:none" id="path42" inkscape:connector-curvature="0"/>
        </g>
        <g id="g44" transform="translate(573.0874,320.2876)">
          <path d="m 0,0 c 5.087,0 12.178,3.468 12.178,3.468 v 8.786 L -0.308,11.329 C -3.391,11.021 -4.084,8.863 -4.084,6.859 V 4.162 C -4.084,0.693 -2.235,0 0,0 m -13.025,7.244 c 0,6.012 3.391,10.867 11.33,10.867 0,0 13.873,-0.076 13.873,0 0,0 0.076,3.469 0,3.546 0,4.47 -2.158,5.472 -5.781,5.472 -4.316,0 -13.256,-0.539 -18.112,-0.848 v 5.781 c 5.395,1.849 11.484,2.466 19.114,2.543 7.938,0.078 13.719,-3.16 13.719,-12.716 v -28.98 h -6.936 l -2.004,4.624 C 11.869,-3.006 4.547,-7.63 -1.927,-7.554 c -7.09,0.155 -11.098,4.857 -11.098,10.637 z" style="fill:#16163d;fill-opacity:1;fill-rule:nonzero;stroke:none" id="path46" inkscape:connector-curvature="0"/>
        </g>
        <g id="g48" transform="translate(601.4463,320.9809)">
          <path d="M 0,0 C 0,1.156 0.617,1.927 1.85,1.927 H 7.553 C 8.94,1.927 9.48,1.233 9.48,0 v -6.012 c 0,-1.386 -0.848,-1.772 -1.927,-1.772 H 1.85 C 0.771,-7.784 0,-7.091 0,-6.012 Z" style="fill:#16163d;fill-opacity:1;fill-rule:nonzero;stroke:none" id="path50" inkscape:connector-curvature="0"/>
        </g>
        <g id="g52" transform="translate(636.7427,336.7036)">
          <path d="m 0,0 c 2.698,0 3.931,1.156 3.931,3.314 0,6.243 -1.002,7.091 -7.322,7.091 -6.782,0 -9.403,-0.231 -9.403,-10.405 z m -3.854,17.727 c 11.099,0 16.725,-1.157 16.725,-14.721 0,-6.86 -3.699,-10.02 -11.098,-10.02 h -14.567 c 0,-8.169 2.466,-9.325 8.324,-9.325 6.551,0 10.79,-0.077 16.571,0.848 v -6.243 c -5.935,-2.004 -13.951,-2.159 -20.348,-2.159 -10.404,0 -13.487,5.627 -13.487,21.041 0,17.804 5.087,20.579 17.88,20.579" style="fill:#16163d;fill-opacity:1;fill-rule:nonzero;stroke:none" id="path54" inkscape:connector-curvature="0"/>
        </g>
        <g id="g56" transform="translate(675.6602,336.7036)">
          <path d="m 0,0 c 2.698,0 3.931,1.156 3.931,3.314 0,6.243 -1.002,7.091 -7.322,7.091 -6.782,0 -9.403,-0.231 -9.403,-10.405 z m -3.854,17.727 c 11.099,0 16.725,-1.157 16.725,-14.721 0,-6.86 -3.699,-10.02 -11.098,-10.02 h -14.567 c 0,-8.169 2.466,-9.325 8.324,-9.325 6.551,0 10.79,-0.077 16.571,0.848 v -6.243 c -5.935,-2.004 -13.951,-2.159 -20.348,-2.159 -10.404,0 -13.487,5.627 -13.487,21.041 0,17.804 5.087,20.579 17.88,20.579" style="fill:#16163d;fill-opacity:1;fill-rule:nonzero;stroke:none" id="path58" inkscape:connector-curvature="0"/>
        </g>
        <g id="g60" transform="translate(312.8559,315.561)">
          <path d="M 0,0 C -1.726,0 -3.125,1.399 -3.125,3.125 -3.125,4.851 -1.726,6.25 0,6.25 1.726,6.25 3.125,4.851 3.125,3.125 3.125,1.399 1.726,0 0,0 m -42,-43.375 c -1.726,0 -3.125,1.399 -3.125,3.125 0,1.726 1.399,3.125 3.125,3.125 1.726,0 3.125,-1.399 3.125,-3.125 0,-1.726 -1.399,-3.125 -3.125,-3.125 M 7.676,3.175 c 0,4.273 -3.465,7.738 -7.739,7.738 -4.273,0 -7.738,-3.465 -7.738,-7.738 0,-2.105 0.843,-4.011 2.207,-5.407 -3.154,-7.001 -7.515,-13.333 -13.012,-18.83 -5.477,-5.477 -11.794,-9.832 -18.775,-12.987 -1.301,0.991 -2.92,1.587 -4.682,1.587 -4.273,0 -7.738,-3.465 -7.738,-7.738 0,-4.274 3.465,-7.739 7.738,-7.739 4.07,0 7.398,3.144 7.708,7.134 7.807,3.524 14.868,8.389 20.985,14.506 6.364,6.364 11.362,13.734 14.911,21.904 3.504,0.739 6.135,3.846 6.135,7.57" style="fill:#d68a1d;fill-opacity:1;fill-rule:nonzero;stroke:none" id="path62" inkscape:connector-curvature="0"/>
        </g>
        <g id="g64" transform="translate(316.6059,336.061)">
          <path d="M 0,0 C -1.726,0 -3.125,1.399 -3.125,3.125 -3.125,4.851 -1.726,6.25 0,6.25 1.726,6.25 3.125,4.851 3.125,3.125 3.125,1.399 1.726,0 0,0 m -67.474,-60.798 c 1.726,0 3.125,-1.399 3.125,-3.125 0,-1.726 -1.399,-3.125 -3.125,-3.125 -1.726,0 -3.125,1.399 -3.125,3.125 0,1.726 1.399,3.125 3.125,3.125 M 3.144,10.211 c -1.698,17.421 -9.752,33.541 -22.713,45.419 -13.127,12.03 -30.17,18.655 -47.988,18.655 -39.175,0 -71.047,-31.871 -71.047,-71.046 0,-36.507 28.079,-67.24 64.215,-70.7 1.294,-2.466 3.875,-4.151 6.853,-4.151 4.273,0 7.738,3.465 7.738,7.738 0,4.274 -3.465,7.739 -7.738,7.739 -2.877,0 -5.382,-1.573 -6.715,-3.903 -32.092,3.366 -56.947,30.766 -56.947,63.277 0,35.092 28.549,63.642 63.641,63.642 15.961,0 31.227,-5.935 42.985,-16.71 11.565,-10.6 18.765,-24.965 20.325,-40.493 -2.136,-1.377 -3.554,-3.772 -3.554,-6.503 0,-4.274 3.465,-7.739 7.738,-7.739 4.274,0 7.739,3.465 7.739,7.739 0,3.128 -1.861,5.816 -4.532,7.036" style="fill:#d68a1d;fill-opacity:1;fill-rule:nonzero;stroke:none" id="path66" inkscape:connector-curvature="0"/>
        </g>
        <g id="g68" transform="translate(281.629,336.2878)">
          <path d="M 0,0 C -1.726,0 -3.125,1.399 -3.125,3.125 -3.125,4.851 -1.726,6.25 0,6.25 1.726,6.25 3.125,4.851 3.125,3.125 3.125,1.399 1.726,0 0,0 m -32.741,-26.755 c 1.726,0 3.125,-1.399 3.125,-3.125 0,-1.726 -1.399,-3.125 -3.125,-3.125 -1.726,0 -3.125,1.399 -3.125,3.125 0,1.726 1.399,3.125 3.125,3.125 m 35.67,37.068 0.051,0.01 c -1.424,6.96 -4.845,13.307 -9.894,18.355 -6.856,6.856 -15.971,10.631 -25.666,10.631 -9.696,0 -18.811,-3.775 -25.667,-10.631 -6.855,-6.855 -10.631,-15.97 -10.631,-25.666 0,-9.696 3.776,-18.811 10.632,-25.667 5.008,-5.008 11.296,-8.409 18.19,-9.853 1.091,-2.952 3.921,-5.061 7.252,-5.061 4.274,0 7.739,3.465 7.739,7.739 0,4.273 -3.465,7.738 -7.739,7.738 -2.516,0 -4.745,-1.207 -6.158,-3.067 -5.314,1.198 -10.164,3.857 -14.048,7.741 -5.457,5.457 -8.463,12.713 -8.463,20.43 0,7.718 3.006,14.973 8.463,20.43 5.457,5.457 12.712,8.463 20.43,8.463 7.718,0 14.973,-3.006 20.43,-8.463 3.846,-3.846 6.489,-8.64 7.703,-13.894 -2.025,-1.395 -3.354,-3.728 -3.354,-6.373 0,-4.274 3.465,-7.738 7.738,-7.738 4.274,0 7.739,3.464 7.739,7.738 0,3.213 -1.959,5.968 -4.747,7.138" style="fill:#d68a1d;fill-opacity:1;fill-rule:nonzero;stroke:none" id="path70" inkscape:connector-curvature="0"/>
        </g>
        <g id="g72" transform="translate(240.2957,323.61)">
          <path d="M 0,0 C -1.726,0 -3.125,1.399 -3.125,3.125 -3.125,4.851 -1.726,6.25 0,6.25 1.726,6.25 3.125,4.851 3.125,3.125 3.125,1.399 1.726,0 0,0 m 0,26.033 c -1.726,0 -3.125,1.399 -3.125,3.125 0,1.726 1.399,3.125 3.125,3.125 1.726,0 3.125,-1.399 3.125,-3.125 0,-1.726 -1.399,-3.125 -3.125,-3.125 m 21.126,3.077 c -3.478,3.306 -8.039,5.052 -12.84,4.936 L 6.019,33.983 c -1.417,1.802 -3.612,2.963 -6.082,2.963 -4.273,0 -7.738,-3.464 -7.738,-7.738 0,-4.274 3.465,-7.738 7.738,-7.738 3.36,0 6.212,2.145 7.281,5.138 l 1.265,0.035 c 2.812,0.081 5.498,-0.957 7.542,-2.901 2.044,-1.941 3.209,-4.563 3.281,-7.383 0.073,-2.818 -0.958,-5.496 -2.9,-7.541 C 14.464,6.774 11.841,5.608 9.117,5.538 H 7.305 c -0.999,3.117 -3.919,5.375 -7.368,5.375 -4.273,0 -7.738,-3.465 -7.738,-7.738 0,-4.274 3.465,-7.739 7.738,-7.739 2.347,0 4.445,1.049 5.864,2.698 l 3.411,0.001 c 4.795,0.122 9.257,2.104 12.562,5.583 3.305,3.478 5.057,8.035 4.935,12.831 -0.123,4.796 -2.106,9.258 -5.583,12.561" style="fill:#d68a1d;fill-opacity:1;fill-rule:nonzero;stroke:none" id="path74" inkscape:connector-curvature="0"/>
        </g>
        <g id="g76" transform="translate(198.5079,342.3143)">
          <path d="M 0,0 C 1.726,0 3.125,-1.399 3.125,-3.125 3.125,-4.851 1.726,-6.25 0,-6.25 c -1.726,0 -3.125,1.399 -3.125,3.125 C -3.125,-1.399 -1.726,0 0,0 m 50.353,44.561 c -1.725,0 -3.125,1.399 -3.125,3.125 0,1.725 1.4,3.125 3.125,3.125 1.726,0 3.125,-1.4 3.125,-3.125 0,-1.726 -1.399,-3.125 -3.125,-3.125 m 7.066,6.191 c -1.176,2.775 -3.925,4.721 -7.128,4.721 -4.274,0 -7.739,-3.464 -7.739,-7.738 0,-4.273 3.465,-7.738 7.739,-7.738 2.658,0 5.001,1.341 6.395,3.383 23.233,-3.041 40.66,-22.844 40.66,-46.394 0,-25.809 -20.997,-46.806 -46.805,-46.806 -23.528,0 -43.149,17.2 -46.347,40.286 2.097,1.384 3.482,3.758 3.482,6.459 0,4.273 -3.465,7.738 -7.739,7.738 -4.273,0 -7.738,-3.465 -7.738,-7.738 0,-3.16 1.897,-5.873 4.611,-7.075 3.531,-26.947 26.344,-47.074 53.731,-47.074 29.891,0 54.21,24.318 54.21,54.21 0,27.354 -20.303,50.343 -47.332,53.766" style="fill:#d68a1d;fill-opacity:1;fill-rule:nonzero;stroke:none" id="path78" inkscape:connector-curvature="0"/>
        </g>
      </g>
    </g>
  </g>
</svg>
